<mxfile host="app.diagrams.net" modified="2023-09-11T19:29:49.336Z" agent="Mozilla/5.0 (Macintosh; Intel Mac OS X 10_15_7) AppleWebKit/537.36 (KHTML, like Gecko) Chrome/116.0.0.0 Safari/537.36" etag="diBFsS2KI46WB4WgGTtp" version="21.6.6" type="github">
  <diagram name="Page-1" id="CJJipEg_ZdHbSAjXl4IN">
    <mxGraphModel dx="1557" dy="2107" grid="1" gridSize="10" guides="1" tooltips="1" connect="1" arrows="1" fold="1" page="1" pageScale="1" pageWidth="850" pageHeight="1100" math="0" shadow="0">
      <root>
        <mxCell id="0" />
        <mxCell id="1" parent="0" />
        <mxCell id="A5_PFPzEll5ALQkFPiz4-1" value="" style="sketch=0;pointerEvents=1;shadow=0;dashed=0;html=1;strokeColor=none;fillColor=#DF8C42;labelPosition=center;verticalLabelPosition=bottom;verticalAlign=top;align=center;outlineConnect=0;shape=mxgraph.veeam2.aws_s3;" vertex="1" parent="1">
          <mxGeometry x="205" y="1197" width="34" height="34" as="geometry" />
        </mxCell>
        <mxCell id="A5_PFPzEll5ALQkFPiz4-2" value="" style="sketch=0;pointerEvents=1;shadow=0;dashed=0;html=1;strokeColor=none;fillColor=#DF8C42;labelPosition=center;verticalLabelPosition=bottom;verticalAlign=top;align=center;outlineConnect=0;shape=mxgraph.veeam2.aws_s3;" vertex="1" parent="1">
          <mxGeometry x="131" y="1200" width="34" height="34" as="geometry" />
        </mxCell>
        <mxCell id="A5_PFPzEll5ALQkFPiz4-3" value="" style="sketch=0;pointerEvents=1;shadow=0;dashed=0;html=1;strokeColor=none;fillColor=#DF8C42;labelPosition=center;verticalLabelPosition=bottom;verticalAlign=top;align=center;outlineConnect=0;shape=mxgraph.veeam2.aws_s3;" vertex="1" parent="1">
          <mxGeometry x="161" y="1150" width="34" height="34" as="geometry" />
        </mxCell>
        <mxCell id="A5_PFPzEll5ALQkFPiz4-7" value="" style="sketch=0;outlineConnect=0;fontColor=#232F3E;gradientColor=none;fillColor=#4D27AA;strokeColor=none;dashed=0;verticalLabelPosition=bottom;verticalAlign=top;align=center;html=1;fontSize=12;fontStyle=0;aspect=fixed;pointerEvents=1;shape=mxgraph.aws4.network_load_balancer;" vertex="1" parent="1">
          <mxGeometry x="163" y="1290" width="36" height="36" as="geometry" />
        </mxCell>
        <mxCell id="A5_PFPzEll5ALQkFPiz4-8" value="" style="outlineConnect=0;dashed=0;verticalLabelPosition=bottom;verticalAlign=top;align=center;html=1;shape=mxgraph.aws3.cloudtrail;fillColor=#759C3E;gradientColor=none;" vertex="1" parent="1">
          <mxGeometry x="138" y="1350" width="34" height="40" as="geometry" />
        </mxCell>
        <mxCell id="A5_PFPzEll5ALQkFPiz4-9" value="" style="outlineConnect=0;dashed=0;verticalLabelPosition=bottom;verticalAlign=top;align=center;html=1;shape=mxgraph.aws3.cloudwatch;fillColor=#759C3E;gradientColor=none;" vertex="1" parent="1">
          <mxGeometry x="217" y="1350" width="36" height="40" as="geometry" />
        </mxCell>
        <mxCell id="A5_PFPzEll5ALQkFPiz4-11" value="" style="sketch=0;points=[[0.015,0.015,0],[0.985,0.015,0],[0.985,0.985,0],[0.015,0.985,0],[0.25,0,0],[0.5,0,0],[0.75,0,0],[1,0.25,0],[1,0.5,0],[1,0.75,0],[0.75,1,0],[0.5,1,0],[0.25,1,0],[0,0.75,0],[0,0.5,0],[0,0.25,0]];verticalLabelPosition=bottom;html=1;verticalAlign=top;aspect=fixed;align=center;pointerEvents=1;shape=mxgraph.cisco19.rect;prIcon=avc_application_visibility_control;fillColor=#FAFAFA;strokeColor=#005073;" vertex="1" parent="1">
          <mxGeometry x="130" y="1460" width="50" height="50" as="geometry" />
        </mxCell>
        <mxCell id="A5_PFPzEll5ALQkFPiz4-12" value="" style="image;sketch=0;aspect=fixed;html=1;points=[];align=center;fontSize=12;image=img/lib/mscae/Enterprise_Applications.svg;" vertex="1" parent="1">
          <mxGeometry x="180" y="1620" width="49" height="50" as="geometry" />
        </mxCell>
        <mxCell id="A5_PFPzEll5ALQkFPiz4-13" value="" style="sketch=0;points=[[0.015,0.015,0],[0.985,0.015,0],[0.985,0.985,0],[0.015,0.985,0],[0.25,0,0],[0.5,0,0],[0.75,0,0],[1,0.25,0],[1,0.5,0],[1,0.75,0],[0.75,1,0],[0.5,1,0],[0.25,1,0],[0,0.75,0],[0,0.5,0],[0,0.25,0]];verticalLabelPosition=bottom;html=1;verticalAlign=top;aspect=fixed;align=center;pointerEvents=1;shape=mxgraph.cisco19.rect;prIcon=avc_application_visibility_control;fillColor=#FAFAFA;strokeColor=#005073;" vertex="1" parent="1">
          <mxGeometry x="210" y="1460" width="50" height="50" as="geometry" />
        </mxCell>
        <mxCell id="A5_PFPzEll5ALQkFPiz4-14" value="" style="sketch=0;points=[[0.015,0.015,0],[0.985,0.015,0],[0.985,0.985,0],[0.015,0.985,0],[0.25,0,0],[0.5,0,0],[0.75,0,0],[1,0.25,0],[1,0.5,0],[1,0.75,0],[0.75,1,0],[0.5,1,0],[0.25,1,0],[0,0.75,0],[0,0.5,0],[0,0.25,0]];verticalLabelPosition=bottom;html=1;verticalAlign=top;aspect=fixed;align=center;pointerEvents=1;shape=mxgraph.cisco19.rect;prIcon=avc_application_visibility_control;fillColor=#FAFAFA;strokeColor=#005073;" vertex="1" parent="1">
          <mxGeometry x="172" y="1525" width="50" height="50" as="geometry" />
        </mxCell>
        <mxCell id="A5_PFPzEll5ALQkFPiz4-15" value="Vector Agent" style="rounded=1;whiteSpace=wrap;html=1;" vertex="1" parent="1">
          <mxGeometry x="320" y="413.5" width="120" height="60" as="geometry" />
        </mxCell>
        <mxCell id="A5_PFPzEll5ALQkFPiz4-16" value="Beats" style="rounded=1;whiteSpace=wrap;html=1;" vertex="1" parent="1">
          <mxGeometry x="320" y="720" width="120" height="60" as="geometry" />
        </mxCell>
        <mxCell id="A5_PFPzEll5ALQkFPiz4-17" value="Kafka" style="rounded=1;whiteSpace=wrap;html=1;" vertex="1" parent="1">
          <mxGeometry x="560" y="617.5" width="120" height="60" as="geometry" />
        </mxCell>
        <mxCell id="A5_PFPzEll5ALQkFPiz4-19" value="Logstash" style="rounded=1;whiteSpace=wrap;html=1;" vertex="1" parent="1">
          <mxGeometry x="770" y="210" width="120" height="60" as="geometry" />
        </mxCell>
        <mxCell id="A5_PFPzEll5ALQkFPiz4-20" value="Logstash" style="rounded=1;whiteSpace=wrap;html=1;" vertex="1" parent="1">
          <mxGeometry x="770" y="410" width="120" height="60" as="geometry" />
        </mxCell>
        <mxCell id="A5_PFPzEll5ALQkFPiz4-21" value="Logstash" style="rounded=1;whiteSpace=wrap;html=1;" vertex="1" parent="1">
          <mxGeometry x="780" y="610" width="120" height="60" as="geometry" />
        </mxCell>
        <mxCell id="A5_PFPzEll5ALQkFPiz4-22" value="Logstash" style="rounded=1;whiteSpace=wrap;html=1;" vertex="1" parent="1">
          <mxGeometry x="780" y="810" width="120" height="60" as="geometry" />
        </mxCell>
        <mxCell id="A5_PFPzEll5ALQkFPiz4-23" value="" style="rounded=1;whiteSpace=wrap;html=1;rotation=-90;" vertex="1" parent="1">
          <mxGeometry x="730" y="511.5" width="700" height="59" as="geometry" />
        </mxCell>
        <mxCell id="A5_PFPzEll5ALQkFPiz4-24" value="Client Node" style="rounded=1;whiteSpace=wrap;html=1;" vertex="1" parent="1">
          <mxGeometry x="1250" y="210" width="120" height="60" as="geometry" />
        </mxCell>
        <mxCell id="A5_PFPzEll5ALQkFPiz4-25" value="Client Node" style="rounded=1;whiteSpace=wrap;html=1;" vertex="1" parent="1">
          <mxGeometry x="1250" y="410" width="120" height="60" as="geometry" />
        </mxCell>
        <mxCell id="A5_PFPzEll5ALQkFPiz4-26" value="Client Node" style="rounded=1;whiteSpace=wrap;html=1;" vertex="1" parent="1">
          <mxGeometry x="1250" y="610" width="120" height="60" as="geometry" />
        </mxCell>
        <mxCell id="A5_PFPzEll5ALQkFPiz4-27" value="Master Node" style="rounded=1;whiteSpace=wrap;html=1;" vertex="1" parent="1">
          <mxGeometry x="1430" y="70" width="120" height="60" as="geometry" />
        </mxCell>
        <mxCell id="A5_PFPzEll5ALQkFPiz4-28" value="Master Node" style="rounded=1;whiteSpace=wrap;html=1;" vertex="1" parent="1">
          <mxGeometry x="1580" y="70" width="120" height="60" as="geometry" />
        </mxCell>
        <mxCell id="A5_PFPzEll5ALQkFPiz4-29" value="Master Node" style="rounded=1;whiteSpace=wrap;html=1;" vertex="1" parent="1">
          <mxGeometry x="1250" y="810" width="120" height="60" as="geometry" />
        </mxCell>
        <mxCell id="A5_PFPzEll5ALQkFPiz4-30" value="Data Node (Hot)" style="rounded=1;whiteSpace=wrap;html=1;" vertex="1" parent="1">
          <mxGeometry x="1920" y="210" width="120" height="60" as="geometry" />
        </mxCell>
        <mxCell id="A5_PFPzEll5ALQkFPiz4-32" value="Data Node (Hot)" style="rounded=1;whiteSpace=wrap;html=1;" vertex="1" parent="1">
          <mxGeometry x="1920" y="410" width="120" height="60" as="geometry" />
        </mxCell>
        <mxCell id="A5_PFPzEll5ALQkFPiz4-33" value="Data Node (Hot)" style="rounded=1;whiteSpace=wrap;html=1;" vertex="1" parent="1">
          <mxGeometry x="1920" y="617.5" width="120" height="60" as="geometry" />
        </mxCell>
        <mxCell id="A5_PFPzEll5ALQkFPiz4-34" value="Data Node (Hot)" style="rounded=1;whiteSpace=wrap;html=1;" vertex="1" parent="1">
          <mxGeometry x="1920" y="810" width="120" height="60" as="geometry" />
        </mxCell>
        <mxCell id="A5_PFPzEll5ALQkFPiz4-35" value="Data Node (Warm)" style="rounded=1;whiteSpace=wrap;html=1;" vertex="1" parent="1">
          <mxGeometry x="2200" y="210" width="120" height="60" as="geometry" />
        </mxCell>
        <mxCell id="A5_PFPzEll5ALQkFPiz4-36" value="Data Node (Warm)" style="rounded=1;whiteSpace=wrap;html=1;" vertex="1" parent="1">
          <mxGeometry x="2200" y="410" width="120" height="60" as="geometry" />
        </mxCell>
        <mxCell id="A5_PFPzEll5ALQkFPiz4-37" value="Data Node (Warm)" style="rounded=1;whiteSpace=wrap;html=1;" vertex="1" parent="1">
          <mxGeometry x="2200" y="810" width="120" height="60" as="geometry" />
        </mxCell>
        <mxCell id="A5_PFPzEll5ALQkFPiz4-38" value="Data Node (Warm)" style="rounded=1;whiteSpace=wrap;html=1;" vertex="1" parent="1">
          <mxGeometry x="2200" y="617.5" width="120" height="60" as="geometry" />
        </mxCell>
        <mxCell id="A5_PFPzEll5ALQkFPiz4-39" value="Kibana" style="rounded=1;whiteSpace=wrap;html=1;" vertex="1" parent="1">
          <mxGeometry x="1730" y="-150" width="120" height="60" as="geometry" />
        </mxCell>
        <mxCell id="A5_PFPzEll5ALQkFPiz4-40" value="Kibana" style="rounded=1;whiteSpace=wrap;html=1;" vertex="1" parent="1">
          <mxGeometry x="1580" y="-150" width="120" height="60" as="geometry" />
        </mxCell>
        <mxCell id="A5_PFPzEll5ALQkFPiz4-41" value="Kibana" style="rounded=1;whiteSpace=wrap;html=1;" vertex="1" parent="1">
          <mxGeometry x="1430" y="-150" width="120" height="60" as="geometry" />
        </mxCell>
        <mxCell id="A5_PFPzEll5ALQkFPiz4-42" value="" style="image;aspect=fixed;html=1;points=[];align=center;fontSize=12;image=img/lib/azure2/other/Update_Center.svg;" vertex="1" parent="1">
          <mxGeometry x="165" y="1722" width="40" height="40" as="geometry" />
        </mxCell>
        <mxCell id="A5_PFPzEll5ALQkFPiz4-43" value="AWS Services (s3, alb, others)" style="ellipse;whiteSpace=wrap;html=1;aspect=fixed;" vertex="1" parent="1">
          <mxGeometry x="33" y="182.5" width="115" height="115" as="geometry" />
        </mxCell>
        <mxCell id="A5_PFPzEll5ALQkFPiz4-45" value="Micro Services" style="ellipse;whiteSpace=wrap;html=1;aspect=fixed;" vertex="1" parent="1">
          <mxGeometry x="33" y="386" width="115" height="115" as="geometry" />
        </mxCell>
        <mxCell id="A5_PFPzEll5ALQkFPiz4-46" value="Billing Service" style="ellipse;whiteSpace=wrap;html=1;aspect=fixed;" vertex="1" parent="1">
          <mxGeometry x="33" y="590" width="115" height="115" as="geometry" />
        </mxCell>
        <mxCell id="A5_PFPzEll5ALQkFPiz4-47" value="Others (system, infra, others)" style="ellipse;whiteSpace=wrap;html=1;aspect=fixed;" vertex="1" parent="1">
          <mxGeometry x="33" y="800" width="115" height="115" as="geometry" />
        </mxCell>
        <mxCell id="A5_PFPzEll5ALQkFPiz4-48" value="Master Node" style="rounded=1;whiteSpace=wrap;html=1;" vertex="1" parent="1">
          <mxGeometry x="1730" y="70" width="120" height="60" as="geometry" />
        </mxCell>
        <mxCell id="A5_PFPzEll5ALQkFPiz4-50" value="" style="rounded=1;whiteSpace=wrap;html=1;rotation=-90;" vertex="1" parent="1">
          <mxGeometry x="1290" y="511.5" width="700" height="59" as="geometry" />
        </mxCell>
      </root>
    </mxGraphModel>
  </diagram>
</mxfile>
